<svg id="_004-dinero" data-name="004-dinero" xmlns="http://www.w3.org/2000/svg" width="53.968" height="53.336" viewBox="0 0 53.968 53.336">
  <g id="Grupo_694" data-name="Grupo 694" transform="translate(31.617 26.689)">
    <g id="Grupo_693" data-name="Grupo 693">
      <path id="Trazado_12166" data-name="Trazado 12166" d="M304.381,263.807A2.028,2.028,0,1,1,306.7,261.8a1.054,1.054,0,1,0,2.108,0,4.194,4.194,0,0,0-3.373-4v-.548a1.054,1.054,0,0,0-2.108,0v.548a4.194,4.194,0,0,0-3.373,4,4.285,4.285,0,0,0,4.427,4.115,2.028,2.028,0,1,1-2.319,2.007,1.054,1.054,0,0,0-2.108,0,4.194,4.194,0,0,0,3.373,4v.455a1.054,1.054,0,0,0,2.108,0v-.455a4.194,4.194,0,0,0,3.373-4A4.285,4.285,0,0,0,304.381,263.807Z" transform="translate(-299.954 -256.201)" fill="#4a1f6f"/>
    </g>
  </g>
  <g id="Grupo_696" data-name="Grupo 696" transform="translate(40.468 22.956)">
    <g id="Grupo_695" data-name="Grupo 695">
      <path id="Trazado_12167" data-name="Trazado 12167" d="M391.045,225.854a13.734,13.734,0,0,0-5.61-4.965,1.054,1.054,0,1,0-.913,1.9,11.6,11.6,0,0,1,5.227,15.895,1.054,1.054,0,1,0,1.861.99,13.718,13.718,0,0,0-.564-13.82Z" transform="translate(-383.924 -220.785)" fill="#4a1f6f"/>
    </g>
  </g>
  <g id="Grupo_698" data-name="Grupo 698" transform="translate(36.576 21.714)">
    <g id="Grupo_697" data-name="Grupo 697">
      <path id="Trazado_12168" data-name="Trazado 12168" d="M348.125,209h-.071a1.054,1.054,0,1,0,0,2.108h.066a1.054,1.054,0,0,0,0-2.108Z" transform="translate(-347 -209.001)" fill="#4a1f6f"/>
    </g>
  </g>
  <g id="Grupo_700" data-name="Grupo 700" transform="translate(22.346 28.429)">
    <g id="Grupo_699" data-name="Grupo 699">
      <path id="Trazado_12169" data-name="Trazado 12169" d="M220.688,290.155a11.6,11.6,0,0,1-5.226-15.895,1.054,1.054,0,1,0-1.861-.99,13.709,13.709,0,0,0,6.174,18.785,1.054,1.054,0,1,0,.913-1.9Z" transform="translate(-212.002 -272.711)" fill="#4a1f6f"/>
    </g>
  </g>
  <g id="Grupo_702" data-name="Grupo 702" transform="translate(33.348 47.011)">
    <g id="Grupo_701" data-name="Grupo 701">
      <path id="Trazado_12170" data-name="Trazado 12170" d="M317.5,449h-.061a1.054,1.054,0,0,0-.01,2.108h.071a1.054,1.054,0,0,0,0-2.108Z" transform="translate(-316.378 -448.999)" fill="#4a1f6f"/>
    </g>
  </g>
  <g id="Grupo_704" data-name="Grupo 704" transform="translate(0 0)">
    <g id="Grupo_703" data-name="Grupo 703">
      <path id="Trazado_12171" data-name="Trazado 12171" d="M40.836,21.148a4.839,4.839,0,0,0-.468-.861h2.744a4.849,4.849,0,1,0,0-9.7H34.67a4.846,4.846,0,0,0-4-7.589H4.849a4.849,4.849,0,0,0,0,9.7H13.29a4.835,4.835,0,0,0,0,5.481H10.541a4.846,4.846,0,0,0-3.013,8.643,4.84,4.84,0,0,0,0,7.589,4.84,4.84,0,0,0,0,7.589,4.846,4.846,0,0,0,3.013,8.643H22.963a17.915,17.915,0,1,0,17.873-29.5Zm2.276-8.45a2.741,2.741,0,1,1,0,5.481H17.287a2.741,2.741,0,0,1,0-5.481ZM4.849,10.589a2.741,2.741,0,0,1,0-5.481H30.673a2.741,2.741,0,0,1,0,5.481Zm5.692,9.7H36.365a2.739,2.739,0,0,1,1.2.275c-.5-.042-1-.064-1.512-.064a17.863,17.863,0,0,0-12.68,5.27H10.541a2.741,2.741,0,0,1,0-5.481Zm0,7.589H21.568a17.868,17.868,0,0,0-2.709,5.481H10.541a2.741,2.741,0,1,1,0-5.481Zm0,7.589h7.834a17.933,17.933,0,0,0-.065,5.481H10.541a2.741,2.741,0,1,1,0-5.481Zm0,13.07a2.741,2.741,0,1,1,0-5.481h8.2a17.848,17.848,0,0,0,2.529,5.481Zm25.509,5.692A15.811,15.811,0,1,1,51.86,38.417,15.829,15.829,0,0,1,36.049,54.228Z" transform="translate(0 -3)" fill="#4a1f6f"/>
    </g>
  </g>
</svg>
