<svg id="_001-soporte-tecnico" data-name="001-soporte-tecnico" xmlns="http://www.w3.org/2000/svg" width="49.145" height="53.336" viewBox="0 0 49.145 53.336">
  <path id="Trazado_12152" data-name="Trazado 12152" d="M189.651,13.291h-.541a15.085,15.085,0,0,0-1.334-3.217l.384-.384a2.339,2.339,0,0,0,0-3.3L185.6,3.83a2.334,2.334,0,0,0-3.3,0l-.384.384A15.031,15.031,0,0,0,178.7,2.876V2.335A2.338,2.338,0,0,0,176.361,0h-3.62a2.338,2.338,0,0,0-2.335,2.335v.541a15.074,15.074,0,0,0-3.22,1.336L166.8,3.83a2.334,2.334,0,0,0-3.3,0l-2.56,2.56a2.339,2.339,0,0,0,0,3.3l.384.384a15.01,15.01,0,0,0-1.334,3.218h-.543a2.338,2.338,0,0,0-2.335,2.335v3.623a2.338,2.338,0,0,0,2.335,2.335h.543a15.014,15.014,0,0,0,1.334,3.218l-.384.384a2.339,2.339,0,0,0,0,3.3l2.558,2.558a2.313,2.313,0,0,0,1.652.686h0a2.312,2.312,0,0,0,1.651-.684l.384-.384A15,15,0,0,0,170.405,32v.542a2.338,2.338,0,0,0,2.335,2.335h3.62A2.338,2.338,0,0,0,178.7,32.54V32a14.953,14.953,0,0,0,3.218-1.334l.382.382a2.334,2.334,0,0,0,3.3,0l2.563-2.561a2.339,2.339,0,0,0,0-3.3l-.384-.384a15.089,15.089,0,0,0,1.334-3.217h.541a2.338,2.338,0,0,0,2.335-2.335V15.626a2.338,2.338,0,0,0-2.335-2.335ZM176.612,32.54a.255.255,0,0,1-.252.252h-3.62a.255.255,0,0,1-.252-.252V24.62a1.042,1.042,0,0,0-.679-.977,7.135,7.135,0,0,1-1.544-12.608c.088-.06.166-.109.234-.15,0,.135-.013.264-.018.331-.008.106-.014.189-.014.272v4.916a4.31,4.31,0,0,0,4.014,4.291,1.05,1.05,0,0,0,.138,0,4.309,4.309,0,0,0,4.011-4.291V11.489c0-.082-.006-.165-.014-.27-.005-.068-.015-.2-.018-.333.068.04.145.089.233.149a7.136,7.136,0,0,1-1.54,12.609,1.042,1.042,0,0,0-.679.977v7.92ZM189.9,19.249a.258.258,0,0,1-.252.252H188.3a1.042,1.042,0,0,0-1.016.812,13.029,13.029,0,0,1-1.7,4.1,1.042,1.042,0,0,0,.144,1.293l.957.957a.256.256,0,0,1,0,.354l-2.566,2.563a.25.25,0,0,1-.352,0l-.957-.957a1.042,1.042,0,0,0-1.294-.143,12.923,12.923,0,0,1-2.824,1.341v-4.5a9.217,9.217,0,0,0,1.312-16c-.388-.265-1.568-1.072-2.6-.478-1.013.583-.912,1.951-.869,2.535,0,.051.007.093.008.117v4.916a2.008,2.008,0,1,1-4,0V11.5c0-.031,0-.074.008-.125.043-.584.145-1.95-.867-2.534-1.031-.595-2.213.212-2.6.477a9.216,9.216,0,0,0,1.315,16v4.5a12.992,12.992,0,0,1-2.828-1.341,1.042,1.042,0,0,0-1.293.144l-.959.959a.25.25,0,0,1-.352,0l-2.56-2.56a.256.256,0,0,1,0-.355l.957-.957a1.042,1.042,0,0,0,.144-1.293,12.961,12.961,0,0,1-1.7-4.095A1.042,1.042,0,0,0,160.8,19.5h-1.352a.258.258,0,0,1-.252-.252V15.626a.255.255,0,0,1,.252-.252H160.8a1.042,1.042,0,0,0,1.016-.814,12.958,12.958,0,0,1,1.7-4.095,1.042,1.042,0,0,0-.144-1.293l-.957-.957a.256.256,0,0,1,0-.355L164.975,5.3a.251.251,0,0,1,.352,0l.957.957a1.042,1.042,0,0,0,1.293.144,13.021,13.021,0,0,1,4.1-1.7,1.042,1.042,0,0,0,.812-1.016V2.335a.255.255,0,0,1,.252-.252h3.62a.255.255,0,0,1,.252.252v1.35a1.042,1.042,0,0,0,.812,1.016,12.969,12.969,0,0,1,4.1,1.7,1.042,1.042,0,0,0,1.294-.143l.959-.959a.251.251,0,0,1,.353,0l2.563,2.56a.256.256,0,0,1,0,.355l-.957.957a1.042,1.042,0,0,0-.144,1.293,13.03,13.03,0,0,1,1.7,4.1,1.042,1.042,0,0,0,1.016.812h1.349a.255.255,0,0,1,.252.252v3.623Z" transform="translate(-142.841 0)" fill="#4a1f6f"/>
  <path id="Trazado_12153" data-name="Trazado 12153" d="M380.162,437.692a1.042,1.042,0,1,0,1.473,1.473l0,0a1.042,1.042,0,0,0-1.476-1.47Z" transform="translate(-342.383 -391.824)" fill="#4a1f6f"/>
  <path id="Trazado_12154" data-name="Trazado 12154" d="M62.721,333.419l-8.27,4.247a3.841,3.841,0,0,0-2.77-1.179H46.014a1.564,1.564,0,0,1-.4-.027,3.056,3.056,0,0,1-.308-.27l-.052-.049c-4.584-4.315-8.457-4.042-12.861-2.3a3,3,0,0,1-1.442.312H29.671a2.77,2.77,0,0,0-2.626-1.9H22.879a2.768,2.768,0,0,0-2.763,2.766v10.935a2.766,2.766,0,0,0,2.763,2.763h4.166a2.77,2.77,0,0,0,2.626-1.9h2.344a1.108,1.108,0,0,1,.448.068c.088.025.194.055.331.092l10.781,2.884c.475.128.911.255,1.333.377a13.587,13.587,0,0,0,3.752.737,8.236,8.236,0,0,0,4.679-1.683l.027-.019,2.058-1.468a1.042,1.042,0,0,0-1.21-1.7L52.17,347.57c-2.73,1.816-3.889,1.48-6.683.67-.43-.125-.875-.254-1.371-.388l-10.782-2.884-.307-.085a2.9,2.9,0,0,0-1.013-.146h-2.2v-8.5h1.171l.059,0a4.882,4.882,0,0,0,2.118-.456c3.868-1.526,6.853-1.708,10.669,1.884l.052.048a2.522,2.522,0,0,0,2.135.862h5.666a1.77,1.77,0,0,1,1.547.913l.01.018a1.766,1.766,0,0,1-1.557,2.605H42.5a1.042,1.042,0,1,0,0,2.083h9.183a3.848,3.848,0,0,0,3.759-4.69l8.232-4.228a1.676,1.676,0,1,1,1.775,2.84l-3.611,2.572a1.042,1.042,0,1,0,1.208,1.7l3.612-2.572a3.753,3.753,0,0,0-3.936-6.391ZM27.728,345.954a.69.69,0,0,1-.683.68H22.879a.689.689,0,0,1-.68-.68V335.019a.682.682,0,0,1,.68-.683h4.166a.692.692,0,0,1,.683.683Z" transform="translate(-20.116 -297.642)" fill="#4a1f6f"/>
</svg>
