<svg id="_006-aprender-en-linea" data-name="006-aprender-en-linea" xmlns="http://www.w3.org/2000/svg" width="64.438" height="64.438" viewBox="0 0 64.438 64.438">
  <path id="Trazado_12208" data-name="Trazado 12208" d="M62.551,60.663H54.244v-18.5a3.78,3.78,0,0,0-3.776-3.776H47.662a16.385,16.385,0,0,0-4.312-8.079,13.488,13.488,0,0,0-4.562-2.985A18.774,18.774,0,0,0,44.824,13.8c0-4.466-1.242-7.972-3.693-10.419A12.27,12.27,0,0,0,32.219,0a12.27,12.27,0,0,0-8.912,3.384C20.857,5.83,19.615,9.336,19.615,13.8A18.774,18.774,0,0,0,25.65,27.323a13.489,13.489,0,0,0-4.562,2.985,16.384,16.384,0,0,0-4.312,8.079H13.97a3.78,3.78,0,0,0-3.776,3.776v18.5H1.888a1.888,1.888,0,1,0,0,3.776H62.551a1.888,1.888,0,1,0,0-3.776ZM32.219,3.776c2.773,0,7.124.922,8.439,6.4a11,11,0,0,1-3.883-1.214,4.285,4.285,0,0,0-2.965-.623,5.678,5.678,0,0,0-2.278,1.267c-1.192.941-2.933,2.312-8.075,2.59.64-7.282,5.677-8.422,8.761-8.422Zm-8.639,12.2c6.412-.338,8.807-2.228,10.293-3.4.215-.17.492-.388.663-.493.152.064.375.175.565.268a14.9,14.9,0,0,0,5.942,1.663A15.465,15.465,0,0,1,38.253,22.3c-1.743,2.479-3.942,3.9-6.033,3.9s-4.291-1.422-6.034-3.9A15.87,15.87,0,0,1,23.58,15.972ZM31.212,30.08h2.014c5.239,0,9.061,3.063,10.544,8.307h-23.1C22.151,33.143,25.973,30.08,31.212,30.08ZM13.97,60.663v-18.5h36.5v18.5Z" transform="translate(0 0)" fill="#4a1f6f"/>
  <circle id="Elipse_1" data-name="Elipse 1" cx="2" cy="2" r="2" transform="translate(30.053 48.63)" fill="#4a1f6f"/>
</svg>
