<svg id="_005-empresario" data-name="005-empresario" xmlns="http://www.w3.org/2000/svg" width="64.438" height="64.438" viewBox="0 0 64.438 64.438">
  <g id="Grupo_768" data-name="Grupo 768" transform="translate(0)">
    <g id="Grupo_767" data-name="Grupo 767">
      <path id="Trazado_12206" data-name="Trazado 12206" d="M362.358,424.8a2.517,2.517,0,0,0-4.929,1.026,2.629,2.629,0,0,1-.533,2.2,2.558,2.558,0,0,1-2.014.957H343.517a2.517,2.517,0,1,0,0,5.034h11.366a7.647,7.647,0,0,0,7.475-9.222Z" transform="translate(-298.083 -369.584)" fill="#4a1f6f"/>
      <path id="Trazado_12207" data-name="Trazado 12207" d="M34.775,34.33A27.691,27.691,0,0,1,55.252,46.511a2.517,2.517,0,1,0,4.181-2.8A32.74,32.74,0,0,0,42.467,30.818a17.116,17.116,0,1,0-20.487.006A32.733,32.733,0,0,0,.164,55.216a7.647,7.647,0,0,0,7.475,9.222H18.627a2.517,2.517,0,1,0,0-5.034H7.639a2.558,2.558,0,0,1-2.014-.957,2.63,2.63,0,0,1-.533-2.2A27.819,27.819,0,0,1,29.406,34.357L24.6,56.22a2.518,2.518,0,0,0,.679,2.32l5.035,5.035a2.517,2.517,0,0,0,3.56,0l5.034-5.035a2.517,2.517,0,0,0,.678-2.32ZM20.137,17.116A12.082,12.082,0,1,1,32.819,29.184c-.2,0-.4-.006-.6-.006s-.393,0-.589.006A12.1,12.1,0,0,1,20.137,17.116ZM32.094,58.235l-2.28-2.281,2.28-10.374,2.28,10.374Z" transform="translate(0)" fill="#4a1f6f"/>
    </g>
  </g>
</svg>
