<svg xmlns="http://www.w3.org/2000/svg" width="65.438" height="65.438" viewBox="0 0 65.438 65.438">
  <g id="_003-usuario" data-name="003-usuario" transform="translate(0.5 0.5)">
    <g id="Grupo_766" data-name="Grupo 766" transform="translate(0)">
      <g id="Grupo_765" data-name="Grupo 765">
        <path id="Trazado_12202" data-name="Trazado 12202" d="M63.569,48.183l-1.552-.3a2.117,2.117,0,0,1-1.307-3.33l.975-1.327a1.075,1.075,0,0,0-.107-1.4l-2.1-2.1a1.077,1.077,0,0,0-1.362-.129l-1.306.885a2.118,2.118,0,0,1-3.281-1.431l-.25-1.627a1.075,1.075,0,0,0-1.062-.911H49.239a1.075,1.075,0,0,0-1.056.871l-.384,2a2.117,2.117,0,0,1-3.266,1.353L42.845,39.6a1.078,1.078,0,0,0-1.362.129l-2.1,2.1a1.076,1.076,0,0,0-.106,1.4l.015.021-4.514-2.462A2.837,2.837,0,0,1,33.3,38.293V34.74a22.567,22.567,0,0,0,3.762-7.773,4.274,4.274,0,0,0,1.608-3.339v-4.3a4.281,4.281,0,0,0-1.074-2.819V10.8a9.63,9.63,0,0,0-2.247-7.009C33.138,1.275,29.558,0,24.7,0S16.267,1.275,14.062,3.791A9.62,9.62,0,0,0,11.816,10.8v5.712a4.275,4.275,0,0,0-1.074,2.819v4.3a4.27,4.27,0,0,0,1.608,3.339,22.568,22.568,0,0,0,3.762,7.773v3.553a2.84,2.84,0,0,1-1.479,2.493L5.051,46.011A9.682,9.682,0,0,0,0,54.517v4.551a1.074,1.074,0,0,0,1.074,1.074H40.4l1.433,1.433a1.072,1.072,0,0,0,1.394.107l1.329-.974a2.117,2.117,0,0,1,3.33,1.308l.3,1.55a1.075,1.075,0,0,0,1.056.872h2.974a1.075,1.075,0,0,0,1.062-.911l.176-1.145A2.118,2.118,0,0,1,56.8,61l.933.685a1.074,1.074,0,0,0,1.4-.107l2.1-2.1a1.072,1.072,0,0,0,.13-1.361L60.471,56.8A2.117,2.117,0,0,1,61.9,53.523l1.626-.25a1.075,1.075,0,0,0,.911-1.062V49.237A1.074,1.074,0,0,0,63.569,48.183ZM2.15,54.517A7.538,7.538,0,0,1,6.078,47.9L15.66,42.67a4.983,4.983,0,0,0,2.6-4.378V34.367a1.079,1.079,0,0,0-.25-.688,20.419,20.419,0,0,1-3.662-7.589,1.071,1.071,0,0,0-.464-.662,2.143,2.143,0,0,1-.993-1.8v-4.3a2.116,2.116,0,0,1,.72-1.583,1.076,1.076,0,0,0,.354-.8V10.74a1.038,1.038,0,0,0-.01-.141,7.451,7.451,0,0,1,1.723-5.391c1.781-2.031,4.818-3.06,9.027-3.06s7.224,1.022,9.005,3.038A7.546,7.546,0,0,1,35.452,10.6a1.226,1.226,0,0,0-.009.141v6.211a1.076,1.076,0,0,0,.354.8,2.119,2.119,0,0,1,.72,1.583v4.3a2.144,2.144,0,0,1-.995,1.8,1.073,1.073,0,0,0-.464.662A20.382,20.382,0,0,1,31.4,33.679a1.084,1.084,0,0,0-.249.688v3.925a4.981,4.981,0,0,0,2.6,4.378l6.826,3.724c-.018.062-.039.124-.063.185a2.078,2.078,0,0,1-1.57,1.3l-1.551.3a1.074,1.074,0,0,0-.872,1.055v2.974a1.075,1.075,0,0,0,.911,1.062l1.626.25A2.117,2.117,0,0,1,40.485,56.8l-.806,1.19H2.15ZM62.292,51.29l-.716.111a4.265,4.265,0,0,0-2.882,6.608l.388.572-.825.824-.19-.14a4.266,4.266,0,0,0-6.738,2.791l-.035.234H50.126L50,61.61a4.265,4.265,0,0,0-6.71-2.633l-.585.429-.825-.825.389-.572A4.266,4.266,0,0,0,39.381,51.4l-.716-.111V50.124l.68-.131a4.265,4.265,0,0,0,2.635-6.711L41.55,42.7l.824-.824.955.645a4.264,4.264,0,0,0,6.58-2.725l.217-1.132h1.166l.109.716a4.265,4.265,0,0,0,6.609,2.883l.571-.388.825.824-.43.585a4.265,4.265,0,0,0,2.635,6.71l.68.131V51.29Z" transform="translate(-0.002)" fill="#4a1f6f" stroke="#4a1f6f" stroke-width="1"/>
        <path id="Trazado_12203" data-name="Trazado 12203" d="M363.769,358.4a5.37,5.37,0,1,0,5.37,5.37A5.376,5.376,0,0,0,363.769,358.4Zm0,8.592a3.222,3.222,0,1,1,3.222-3.222A3.226,3.226,0,0,1,363.769,366.992Z" transform="translate(-313.292 -313.293)" fill="#4a1f6f" stroke="#4a1f6f" stroke-width="1"/>
      </g>
    </g>
  </g>
</svg>
