<svg id="_002-metodo-de-pago" data-name="002-metodo-de-pago" xmlns="http://www.w3.org/2000/svg" width="53.341" height="53.336" viewBox="0 0 53.341 53.336">
  <g id="Grupo_686" data-name="Grupo 686" transform="translate(15.914 39.988)">
    <g id="Grupo_685" data-name="Grupo 685">
      <path id="Trazado_12155" data-name="Trazado 12155" d="M154.813,384.7a1.087,1.087,0,0,0-.059-.2,1.059,1.059,0,0,0-.1-.179,1.014,1.014,0,0,0-.288-.288,1.027,1.027,0,0,0-.18-.1.976.976,0,0,0-.195-.059,1.025,1.025,0,0,0-.406,0,1.007,1.007,0,0,0-.2.059,1.056,1.056,0,0,0-.179.1,1.041,1.041,0,0,0-.383.467,1.01,1.01,0,0,0-.059.2,1,1,0,0,0,0,.406.979.979,0,0,0,.059.195.964.964,0,0,0,.1.18,1.013,1.013,0,0,0,.288.288,1.051,1.051,0,0,0,.179.1,1.011,1.011,0,0,0,.2.059,1,1,0,0,0,.406,0,.98.98,0,0,0,.195-.059,1.029,1.029,0,0,0,.18-.1,1.014,1.014,0,0,0,.288-.288,1.03,1.03,0,0,0,.1-.18,1.053,1.053,0,0,0,.059-.195,1,1,0,0,0,0-.406Z" transform="translate(-152.75 -383.857)" fill="#4a1f6f"/>
    </g>
  </g>
  <g id="Grupo_688" data-name="Grupo 688" transform="translate(0 32.286)">
    <g id="Grupo_687" data-name="Grupo 687">
      <path id="Trazado_12156" data-name="Trazado 12156" d="M47.923,318.784l-.013-.031c-.959-2.244-3.208-3.073-5.869-2.164L34.783,318.6a4.758,4.758,0,0,0-2.946-2.9l-.028-.01-7.978-2.708a8.229,8.229,0,0,0-6.639-3.055c-2.722,0-5.129,1.867-6.507,3.9H1.042A1.042,1.042,0,0,0,0,314.866V328a1.042,1.042,0,0,0,1.042,1.042H7.236A1.042,1.042,0,0,0,8.278,328v-.9h2.9a1.042,1.042,0,0,0,1.042-1.042v-.3a7.386,7.386,0,0,1,3.806,1.366,63.048,63.048,0,0,0,6.259,3.2l.046.019a9.351,9.351,0,0,0,3.352.632,8.3,8.3,0,0,0,3.452-.739l16.043-5.744c.029-.01.057-.022.084-.034C46.8,323.749,49.083,321.761,47.923,318.784ZM6.194,326.959H2.084V315.908H6.194Zm3.947-1.941H8.278v-9.11h1.863Zm34.292-2.474L28.4,328.285l-.047.018-.042.018a6.753,6.753,0,0,1-5.188.088,60.342,60.342,0,0,1-6.049-3.09,9.377,9.377,0,0,0-4.846-1.648v-8.391c.988-1.619,2.9-3.275,4.967-3.275a6.012,6.012,0,0,1,5.1,2.4,1.042,1.042,0,0,0,.553.441l8.28,2.81a2.337,2.337,0,0,1,1.7,2.758,2.03,2.03,0,0,1-2.494,1.4L21,318.854a1.042,1.042,0,1,0-.629,1.986l9.35,2.963.03.009a4.089,4.089,0,0,0,3.127-.363,4.086,4.086,0,0,0,1.954-2.468q.036-.127.064-.253l7.822-2.167c1.13-.386,2.613-.525,3.273,1C46.671,321.341,44.895,322.324,44.433,322.544Z" transform="translate(0 -309.922)" fill="#4a1f6f"/>
    </g>
  </g>
  <g id="Grupo_690" data-name="Grupo 690" transform="translate(35.343 12.864)">
    <g id="Grupo_689" data-name="Grupo 689">
      <path id="Trazado_12157" data-name="Trazado 12157" d="M341.314,124.336a1.015,1.015,0,0,0-.06-.2,1.027,1.027,0,0,0-.383-.467,1.057,1.057,0,0,0-.179-.1,1.038,1.038,0,0,0-.6-.059.979.979,0,0,0-.195.059,1.027,1.027,0,0,0-.18.1,1.012,1.012,0,0,0-.288.288,1.056,1.056,0,0,0-.1.179,1.007,1.007,0,0,0-.059.2,1,1,0,0,0,0,.406.976.976,0,0,0,.059.195,1.027,1.027,0,0,0,.1.18,1.012,1.012,0,0,0,.288.288,1.027,1.027,0,0,0,.18.1,1.053,1.053,0,0,0,.195.059,1.027,1.027,0,0,0,.2.021,1.045,1.045,0,0,0,.2-.021,1.1,1.1,0,0,0,.195-.059,1.057,1.057,0,0,0,.179-.1,1.012,1.012,0,0,0,.288-.288.964.964,0,0,0,.1-.18.983.983,0,0,0,.06-.195,1.053,1.053,0,0,0,0-.406Z" transform="translate(-339.25 -123.498)" fill="#4a1f6f"/>
    </g>
  </g>
  <g id="Grupo_692" data-name="Grupo 692" transform="translate(3.093 0)">
    <g id="Grupo_691" data-name="Grupo 691">
      <path id="Trazado_12158" data-name="Trazado 12158" d="M78.9,3.552H72.7A1.042,1.042,0,0,0,71.66,4.593v.9h-2.9a1.042,1.042,0,0,0-1.042,1.042v.3a7.387,7.387,0,0,1-3.805-1.366,63.039,63.039,0,0,0-6.259-3.2L57.6,2.254a8.863,8.863,0,0,0-6.8.107l-4.192,1.5L43.074.328a1.042,1.042,0,0,0-1.473,0L30,11.93A1.033,1.033,0,0,0,30,13.4L49.824,33.227a1.126,1.126,0,0,0,1.473,0L61.889,22.636c.275.024.561.037.857.037,2.722,0,5.129-1.867,6.507-3.9H78.9a1.042,1.042,0,0,0,1.042-1.042V4.593A1.042,1.042,0,0,0,78.9,3.552ZM42.338,2.538l2.374,2.374a4.542,4.542,0,0,1-4.749,0Zm-7.753,12.5L32.21,12.666l2.375-2.374a4.542,4.542,0,0,1,0,4.749ZM50.561,31.017l-2.374-2.374a4.536,4.536,0,0,1,4.748,0Zm3.875-3.875a6.62,6.62,0,0,0-7.75,0l-10.6-10.6a6.621,6.621,0,0,0,0-7.751l2.377-2.377a6.621,6.621,0,0,0,7.751,0l2.253,2.253a4.129,4.129,0,0,0-3.1,2.271,5.938,5.938,0,1,0,6.827,7.351l3.518,1.194a6.651,6.651,0,0,0,1.1,5.28ZM48.1,16.9l.028.01,2.083.707a3.855,3.855,0,1,1-5.232-4.4A4.612,4.612,0,0,0,48.1,16.9Zm10.214,6.362a4.557,4.557,0,0,1-.666-2.167,8.1,8.1,0,0,0,1.837.995Zm9.4-5.949c-.987,1.619-2.9,3.276-4.967,3.276a7.583,7.583,0,0,1-1.087-.076h0A5.967,5.967,0,0,1,57.8,18.4c-.021-.031-.112-.15-.125-.169a1.038,1.038,0,0,0-.574-.477l-8.283-2.811a2.338,2.338,0,0,1-1.7-2.757v0a2.03,2.03,0,0,1,2.493-1.4l9.334,2.958a1.042,1.042,0,1,0,.629-1.986L52.148,9.4l-.065-.065,0,0L48.238,5.491l3.3-1.183.036-.014.011,0,.042-.018a6.752,6.752,0,0,1,5.188-.088,60.347,60.347,0,0,1,6.049,3.09,9.376,9.376,0,0,0,4.846,1.648Zm3.947-.627H69.8V7.577H71.66Zm6.194,0H73.744V5.635h4.111Z" transform="translate(-29.691 -0.023)" fill="#4a1f6f"/>
    </g>
  </g>
</svg>
