<svg xmlns="http://www.w3.org/2000/svg" width="27.75" height="37" viewBox="0 0 27.75 37">
  <g id="_001-candado" data-name="001-candado" transform="translate(-3)">
    <path id="Trazado_12136" data-name="Trazado 12136" d="M27.281,32.125H6.469A3.473,3.473,0,0,1,3,28.656V12.469A3.473,3.473,0,0,1,6.469,9H27.281a3.473,3.473,0,0,1,3.469,3.469V28.656A3.473,3.473,0,0,1,27.281,32.125ZM6.469,11.313a1.158,1.158,0,0,0-1.156,1.156V28.656a1.158,1.158,0,0,0,1.156,1.156H27.281a1.158,1.158,0,0,0,1.156-1.156V12.469a1.158,1.158,0,0,0-1.156-1.156Z" transform="translate(0 4.875)" fill="#4a1f6f"/>
    <path id="Trazado_12137" data-name="Trazado 12137" d="M23.344,16.188a1.157,1.157,0,0,1-1.156-1.156V9.25a6.937,6.937,0,1,0-13.875,0v5.781a1.156,1.156,0,0,1-2.312,0V9.25a9.25,9.25,0,1,1,18.5,0v5.781A1.157,1.157,0,0,1,23.344,16.188Z" transform="translate(1.625)" fill="#4a1f6f"/>
    <path id="Trazado_12138" data-name="Trazado 12138" d="M13.083,19.167a3.083,3.083,0,1,1,3.083-3.083A3.086,3.086,0,0,1,13.083,19.167Zm0-3.854a.771.771,0,1,0,.771.771A.772.772,0,0,0,13.083,15.313Z" transform="translate(3.792 7.042)" fill="#4a1f6f"/>
    <path id="Trazado_12139" data-name="Trazado 12139" d="M12.406,22.3a1.157,1.157,0,0,1-1.156-1.156v-4.24a1.156,1.156,0,0,1,2.313,0v4.24A1.157,1.157,0,0,1,12.406,22.3Z" transform="translate(4.469 8.531)" fill="#4a1f6f"/>
  </g>
</svg>
