<svg xmlns="http://www.w3.org/2000/svg" xmlns:xlink="http://www.w3.org/1999/xlink" width="90.919" height="57.807" viewBox="0 0 90.919 57.807">
  <defs>
    <linearGradient id="linear-gradient" x1="0.227" y1="0.846" x2="0.902" y2="0.042" gradientUnits="objectBoundingBox">
      <stop offset="0" stop-color="#672d8b"/>
      <stop offset="0.999" stop-color="#d11f5c"/>
    </linearGradient>
    <linearGradient id="linear-gradient-2" x1="0.065" y1="0.882" x2="0.726" y2="-0.039" gradientUnits="objectBoundingBox">
      <stop offset="0" stop-color="#270d44"/>
      <stop offset="1" stop-color="#9e205e"/>
    </linearGradient>
    <linearGradient id="linear-gradient-3" x1="0.175" y1="0.87" x2="0.748" y2="0.03" xlink:href="#linear-gradient"/>
    <linearGradient id="linear-gradient-4" x1="0.751" y1="0.18" x2="0.118" y2="0.933" gradientUnits="objectBoundingBox">
      <stop offset="0" stop-color="#ed0973"/>
      <stop offset="1" stop-color="#faa61a"/>
    </linearGradient>
    <linearGradient id="linear-gradient-5" x1="0.842" y1="0.248" x2="0.293" y2="1.012" gradientUnits="objectBoundingBox">
      <stop offset="0" stop-color="#c7212b"/>
      <stop offset="1" stop-color="#f58220"/>
    </linearGradient>
    <linearGradient id="linear-gradient-6" x1="0.824" y1="0.131" x2="0.3" y2="0.9" xlink:href="#linear-gradient-4"/>
  </defs>
  <g id="Grupo_269" data-name="Grupo 269" transform="translate(-8.904 -8.904)">
    <g id="Grupo_262" data-name="Grupo 262" transform="translate(8.904 8.904)">
      <g id="Grupo_255" data-name="Grupo 255" transform="translate(17.727 48.633)">
        <path id="Trazado_1968" data-name="Trazado 1968" d="M44.494,106.846h5v.782H45.365v3.231h3.37v.783h-3.37v3.294h4.354v.783H44.494Z" transform="translate(-44.494 -106.694)" fill="#fff"/>
        <path id="Trazado_1969" data-name="Trazado 1969" d="M59.721,106.846h.845l4.531,6.385c.3.442.732,1.2.732,1.2h.025s-.076-.732-.076-1.2v-6.385h.871v8.872H65.8l-4.531-6.386c-.3-.442-.732-1.2-.732-1.2h-.025s.076.732.076,1.2v6.386h-.871Z" transform="translate(-52.136 -106.694)" fill="#fff"/>
        <path id="Trazado_1970" data-name="Trazado 1970" d="M79.558,106.846h5v.782H80.429v3.231H83.8v.783h-3.37v3.294h4.354v.783H79.558Z" transform="translate(-62.093 -106.694)" fill="#fff"/>
        <path id="Trazado_1971" data-name="Trazado 1971" d="M94.785,106.846H97.41a3.944,3.944,0,0,1,1.666.24,2.583,2.583,0,0,1-.341,4.682v.025a3.474,3.474,0,0,1,.227.354l1.931,3.571h-1l-2.007-3.736H95.656v3.736h-.871Zm2.978,4.353a1.837,1.837,0,0,0,.946-3.357,2.552,2.552,0,0,0-1.262-.215H95.656V111.2Z" transform="translate(-69.735 -106.694)" fill="#fff"/>
        <path id="Trazado_1972" data-name="Trazado 1972" d="M114.507,106.541a4.79,4.79,0,0,1,3.154,1.035l-.467.656a4.364,4.364,0,0,0-2.65-.883,3.787,3.787,0,0,0-.076,7.559,3.873,3.873,0,0,0,2.789-1.3v-1.5h-1.515v-.782h2.348v4.24h-.808V114.9c0-.189.013-.379.013-.379h-.025a3.967,3.967,0,0,1-2.89,1.2,4.395,4.395,0,0,1-4.341-4.593A4.454,4.454,0,0,1,114.507,106.541Z" transform="translate(-77.392 -106.541)" fill="#fff"/>
        <path id="Trazado_1973" data-name="Trazado 1973" d="M131.7,111.906l-2.991-5.06h1l1.881,3.218c.265.454.542,1.06.542,1.06h.025s.265-.593.543-1.06l1.88-3.218h.984l-2.978,5.06v3.811H131.7Z" transform="translate(-86.761 -106.694)" fill="#fff"/>
      </g>
      <g id="Grupo_258" data-name="Grupo 258" transform="translate(64.308)">
        <g id="Grupo_257" data-name="Grupo 257">
          <g id="Grupo_256" data-name="Grupo 256">
            <path id="Trazado_1974" data-name="Trazado 1974" d="M146.34,13.558a9.991,9.991,0,0,1,9.954,0A4.989,4.989,0,0,0,151.317,8.9a13.305,13.305,0,1,0,0,26.61,4.989,4.989,0,0,1-4.977-4.654,9.982,9.982,0,0,1,0-17.3Z" transform="translate(-138.012 -8.904)" fill="url(#linear-gradient)"/>
            <path id="Trazado_1975" data-name="Trazado 1975" d="M159.646,16.91a9.98,9.98,0,0,0-9.954,17.3c-.007-.111-.012-.223-.012-.335a4.984,4.984,0,0,1,2.232-4.158,4.989,4.989,0,1,1,5.515-8.316,4.984,4.984,0,0,0,2.232-4.158C159.658,17.133,159.653,17.021,159.646,16.91Z" transform="translate(-141.364 -12.256)" fill="url(#linear-gradient-2)"/>
            <path id="Trazado_1976" data-name="Trazado 1976" d="M159.7,27.262a4.965,4.965,0,0,0,2.757-.831,4.989,4.989,0,1,0-5.515,8.316,4.961,4.961,0,0,1,2.757-.832,3.326,3.326,0,0,1,0-6.653Z" transform="translate(-146.391 -17.283)" fill="url(#linear-gradient-3)"/>
            <path id="Trazado_1977" data-name="Trazado 1977" d="M159.709,8.9a4.989,4.989,0,0,1,4.977,4.654,9.98,9.98,0,0,1-9.954,17.3,4.989,4.989,0,0,0,4.977,4.654,13.305,13.305,0,1,0,0-26.61Z" transform="translate(-146.404 -8.904)" fill="url(#linear-gradient-4)"/>
            <path id="Trazado_1978" data-name="Trazado 1978" d="M164.673,18.248c.007.111.012.223.012.335a4.984,4.984,0,0,1-2.232,4.158,4.989,4.989,0,1,1-5.515,8.316,4.984,4.984,0,0,0-2.232,4.158c0,.113,0,.224.012.335a9.98,9.98,0,0,0,9.954-17.3Z" transform="translate(-146.391 -13.594)" fill="url(#linear-gradient-5)"/>
            <path id="Trazado_1979" data-name="Trazado 1979" d="M164.7,27.269a4.965,4.965,0,0,1-2.757.831,3.326,3.326,0,1,1,0,6.653,4.961,4.961,0,0,0-2.757.832,4.989,4.989,0,1,0,5.515-8.316Z" transform="translate(-148.64 -18.121)" fill="url(#linear-gradient-6)"/>
          </g>
        </g>
      </g>
      <g id="Grupo_261" data-name="Grupo 261" transform="translate(0 19.958)">
        <g id="Grupo_259" data-name="Grupo 259" transform="translate(44.789 0)">
          <path id="Trazado_1980" data-name="Trazado 1980" d="M98.824,62.343h4.435V80.074H98.824Z" transform="translate(-98.824 -55.683)" fill="#fff"/>
          <rect id="Rect치ngulo_2172" data-name="Rect치ngulo 2172" width="4.435" height="4.435" transform="translate(0)" fill="#fff"/>
        </g>
        <path id="Trazado_1981" data-name="Trazado 1981" d="M24.181,61.922h4.242v2.051a10.957,10.957,0,0,1-.07,1.217h.07a6.878,6.878,0,0,1,6.293-3.685c3.929,0,6.154,2.052,6.154,6.745v11.4h-4.38v-10.5c0-2.156-.556-3.616-2.816-3.616a4.894,4.894,0,0,0-4.763,3.616,7.472,7.472,0,0,0-.313,2.364v8.135H24.181Z" transform="translate(-16.572 -55.262)" fill="#fff"/>
        <path id="Trazado_1982" data-name="Trazado 1982" d="M121.9,68.528h.591v-.244c0-2.329-1.46-3.129-3.407-3.129a9.487,9.487,0,0,0-4.867,1.7L112.551,63.7a11.958,11.958,0,0,1,6.953-2.191c4.659,0,7.371,2.573,7.371,7.058V79.654h-4.068v-1.46a11.2,11.2,0,0,1,.07-1.251h-.07a5.737,5.737,0,0,1-5.388,3.129c-3.164,0-6.015-1.982-6.015-5.528C111.4,68.911,119.017,68.528,121.9,68.528Zm-3.373,8.1c2.33,0,4-2.5,4-4.659v-.417h-.765c-2.26,0-5.91.313-5.91,2.781A2.365,2.365,0,0,0,118.53,76.629Z" transform="translate(-60.348 -55.262)" fill="#fff"/>
        <path id="Trazado_1983" data-name="Trazado 1983" d="M63.391,48.972h4.435V61.89h1.313l5.135-6.258h4.9l-6.456,7.927v.069l7.152,9.735H74.795L69.243,65.61H67.826v7.753H63.391Z" transform="translate(-36.251 -48.972)" fill="#fff"/>
        <g id="Grupo_260" data-name="Grupo 260" transform="translate(0 0)">
          <path id="Trazado_1984" data-name="Trazado 1984" d="M8.9,62.343h4.435V80.074H8.9Z" transform="translate(-8.904 -55.683)" fill="#fff"/>
          <rect id="Rect치ngulo_2173" data-name="Rect치ngulo 2173" width="4.435" height="4.435" transform="translate(0)" fill="#fff"/>
        </g>
      </g>
    </g>
  </g>
</svg>
